<?xml version="1.0" encoding="utf-8"?>
<!-- Generator: Adobe Illustrator 27.7.0, SVG Export Plug-In . SVG Version: 6.00 Build 0)  -->
<svg version="1.1" id="Camada_1" xmlns="http://www.w3.org/2000/svg" xmlns:xlink="http://www.w3.org/1999/xlink" x="0px" y="0px"
	 viewBox="0 0 192.2 35.3" style="enable-background:new 0 0 192.2 35.3;" xml:space="preserve">
<style type="text/css">
	.st0{fill-rule:evenodd;clip-rule:evenodd;fill:#FFFFFF;}
</style>
<g>
	<g>
		<g>
			<g>
				<g>
					<path id="path_f3df132ad98c1fcc6ccee551ae81839d" class="st0" d="M17.6,35.3H5.9c-3.2,0-5.9-2.6-5.9-5.9V19.1
						c0-3.2,2.6-5.9,5.9-5.9h11.8c3.2,0,5.9,2.6,5.9,5.9l0,10.3C23.5,32.6,20.9,35.3,17.6,35.3z M5.9,16.2c-1.6,0-2.9,1.3-2.9,2.9
						v10.3c0,1.6,1.3,2.9,2.9,2.9h11.8c1.6,0,2.9-1.3,2.9-2.9l0-10.3c0-1.6-1.3-2.9-2.9-2.9H5.9z"/>
				</g>
			</g>
		</g>
	</g>
	<g>
		<g>
			<g>
				<g>
					<path id="path_f2a6be248e74d43fd13c5cc29a5ef78a" class="st0" d="M19.1,16.2H4.4c-0.9,0-1.5-0.6-1.5-1.5l0-5.9
						C2.9,4,6.9,0,11.8,0c5,0,8.8,4,8.8,8.8v5.9C20.6,15.6,20,16.2,19.1,16.2z M5.9,13.2h11.8V8.8c0-3.2-2.6-5.9-5.9-5.9
						c-3.2,0-5.9,2.6-5.9,5.9V13.2z"/>
				</g>
			</g>
		</g>
	</g>
	<g>
		<g>
			<g>
				<g>
					<path id="path_4aa23eb189646ce4ef35e072c34bdf85" class="st0" d="M14.7,22c0,1.6-1.3,2.9-2.9,2.9c-1.6,0-2.9-1.3-2.9-2.9
						c0-1.6,1.3-2.9,2.9-2.9C13.4,19.1,14.7,20.4,14.7,22z"/>
				</g>
			</g>
		</g>
	</g>
	<g>
		<g>
			<g>
				<g>
					<path id="path_fbf6147c6069826e96c42262544849d5" class="st0" d="M11.8,29.4c-0.9,0-1.5-0.6-1.5-1.5v-4.4
						c0-0.9,0.6-1.5,1.5-1.5c0.9,0,1.5,0.6,1.5,1.5v4.4C13.2,28.8,12.6,29.4,11.8,29.4z"/>
				</g>
			</g>
		</g>
	</g>
</g>
<g>
	<g>
	</g>
	<g>
	</g>
	<g>
		<g>
			<path id="path_8c0b3cdd6b162d753a41962518d65d6f" class="st0" d="M28.8,28.4l2-0.2c0.1,0.8,0.3,1.5,0.7,2
				c0.4,0.5,0.9,0.9,1.6,1.3c0.7,0.3,1.6,0.5,2.5,0.5c0.8,0,1.5-0.1,2.2-0.4c0.6-0.2,1.1-0.6,1.4-1c0.3-0.4,0.5-0.9,0.5-1.4
				c0-0.5-0.1-1-0.4-1.3c-0.3-0.4-0.8-0.7-1.5-1c-0.4-0.2-1.4-0.4-2.9-0.8c-1.5-0.4-2.5-0.7-3.1-1c-0.8-0.4-1.4-0.9-1.7-1.5
				c-0.4-0.6-0.6-1.3-0.6-2c0-0.8,0.2-1.6,0.7-2.3c0.5-0.7,1.1-1.3,2-1.6c0.9-0.4,1.9-0.6,3-0.6c1.2,0,2.3,0.2,3.2,0.6
				c0.9,0.4,1.6,1,2.1,1.7c0.5,0.8,0.8,1.6,0.8,2.6l-2.1,0.2c-0.1-1-0.5-1.8-1.1-2.3c-0.6-0.5-1.6-0.8-2.8-0.8
				c-1.3,0-2.2,0.2-2.8,0.7c-0.6,0.5-0.9,1-0.9,1.7c0,0.6,0.2,1.1,0.6,1.4c0.4,0.4,1.5,0.8,3.2,1.2c1.7,0.4,2.9,0.7,3.6,1
				c0.9,0.4,1.6,1,2.1,1.7c0.4,0.7,0.7,1.4,0.7,2.3c0,0.9-0.2,1.7-0.7,2.4c-0.5,0.8-1.2,1.4-2.1,1.8c-0.9,0.4-2,0.6-3.1,0.6
				c-1.5,0-2.7-0.2-3.7-0.6c-1-0.4-1.8-1.1-2.3-1.9C29.1,30.4,28.8,29.5,28.8,28.4z"/>
		</g>
	</g>
	<g>
		<g>
			<path id="path_897ffed8bc2f3bf6b4563d2ea82c12fd" class="st0" d="M52.4,29.8l2.1,0.3c-0.3,1.2-0.9,2.1-1.8,2.8
				c-0.9,0.7-2,1-3.4,1c-1.7,0-3.1-0.5-4.1-1.6c-1-1.1-1.5-2.5-1.5-4.5c0-2,0.5-3.5,1.5-4.6c1-1.1,2.3-1.6,4-1.6
				c1.6,0,2.9,0.5,3.8,1.6c1,1.1,1.5,2.6,1.5,4.5c0,0.1,0,0.3,0,0.5h-8.8c0.1,1.3,0.4,2.3,1.1,3c0.7,0.7,1.5,1,2.5,1
				c0.7,0,1.4-0.2,1.9-0.6C51.7,31.3,52.1,30.6,52.4,29.8z M45.8,26.6h6.6c-0.1-1-0.3-1.7-0.8-2.2c-0.6-0.8-1.5-1.2-2.5-1.2
				c-0.9,0-1.7,0.3-2.3,0.9C46.3,24.7,45.9,25.6,45.8,26.6z"/>
		</g>
	</g>
	<g>
		<g>
			<path id="path_52a7503ed9c8770d9fca8af8348a6c0b" class="st0" d="M56.9,33.6V21.8h1.8v1.8c0.5-0.8,0.9-1.4,1.3-1.6
				c0.4-0.3,0.8-0.4,1.3-0.4c0.7,0,1.4,0.2,2,0.6l-0.7,1.8c-0.5-0.3-1-0.4-1.5-0.4c-0.4,0-0.8,0.1-1.2,0.4c-0.3,0.3-0.6,0.6-0.7,1.1
				c-0.2,0.7-0.3,1.5-0.3,2.3v6.2H56.9z"/>
		</g>
	</g>
	<g>
		<g>
			<path id="path_7ff1a08be4d8047144d1fb1f598628fb" class="st0" d="M67.7,33.6l-4.5-11.7h2.1l2.5,7c0.3,0.8,0.5,1.5,0.8,2.4
				c0.2-0.6,0.4-1.4,0.7-2.2l2.6-7.2h2l-4.4,11.7H67.7z"/>
		</g>
	</g>
	<g>
		<g>
			<path id="path_01fd05e0ec4f128e2fe40c9d6d5e5c94" class="st0" d="M75.8,19.7v-2.3h2v2.3H75.8z M75.8,33.6V21.8h2l0,11.7H75.8z"/>
		</g>
	</g>
	<g>
		<g>
			<path id="path_0758193000ce420dd3dc0ef4dde06f18" class="st0" d="M88.5,33.6v-1.5c-0.7,1.2-1.8,1.7-3.3,1.7
				c-0.9,0-1.8-0.3-2.6-0.8c-0.8-0.5-1.4-1.2-1.8-2.2c-0.4-0.9-0.6-2-0.6-3.2c0-1.2,0.2-2.2,0.6-3.2c0.4-1,1-1.7,1.8-2.2
				c0.8-0.5,1.7-0.8,2.6-0.8c0.7,0,1.3,0.1,1.9,0.4c0.6,0.3,1,0.7,1.3,1.2v-5.8h2v16.2H88.5z M82.2,27.7c0,1.5,0.3,2.6,1,3.4
				c0.6,0.7,1.4,1.1,2.2,1.1c0.9,0,1.6-0.4,2.2-1.1c0.6-0.7,0.9-1.8,0.9-3.3c0-1.6-0.3-2.8-0.9-3.5c-0.6-0.8-1.4-1.1-2.3-1.1
				c-0.9,0-1.6,0.4-2.2,1.1C82.5,25,82.2,26.2,82.2,27.7z"/>
		</g>
	</g>
	<g>
		<g>
			<path id="path_6189bf571b63e952a13a69abd6db51a4" class="st0" d="M92.7,27.7c0-2.2,0.6-3.8,1.8-4.8c1-0.9,2.2-1.3,3.7-1.3
				c1.6,0,2.9,0.5,4,1.6c1,1.1,1.5,2.5,1.5,4.4c0,1.5-0.2,2.7-0.7,3.6c-0.5,0.9-1.1,1.5-2,2c-0.9,0.5-1.8,0.7-2.8,0.7
				c-1.6,0-3-0.5-4-1.6C93.2,31.2,92.7,29.7,92.7,27.7z M94.7,27.7c0,1.5,0.3,2.6,1,3.4c0.7,0.7,1.5,1.1,2.5,1.1
				c1,0,1.8-0.4,2.5-1.1c0.7-0.8,1-1.9,1-3.4c0-1.5-0.3-2.6-1-3.3c-0.7-0.7-1.5-1.1-2.5-1.1c-1,0-1.8,0.4-2.5,1.1
				C95.1,25.1,94.7,26.2,94.7,27.7z"/>
		</g>
	</g>
	<g>
		<g>
			<path id="path_8a8a81e1fcda5628fc819491e9e96872" class="st0" d="M106,33.6V21.8h1.8v1.8c0.5-0.8,0.9-1.4,1.3-1.6
				c0.4-0.3,0.8-0.4,1.3-0.4c0.7,0,1.4,0.2,2,0.6l-0.7,1.8c-0.5-0.3-1-0.4-1.5-0.4c-0.4,0-0.8,0.1-1.2,0.4c-0.3,0.3-0.6,0.6-0.7,1.1
				c-0.2,0.7-0.3,1.5-0.3,2.3v6.2H106z"/>
		</g>
	</g>
	<g>
		<g>
			<path id="path_3db40a1304b780f29f6f53e8e376a1c1" class="st0" d="M120.1,33.6V17.4h6.1c1.1,0,1.9,0.1,2.5,0.2
				c0.8,0.1,1.5,0.4,2,0.8c0.5,0.4,1,0.9,1.3,1.6c0.3,0.7,0.5,1.4,0.5,2.2c0,1.4-0.4,2.5-1.3,3.5c-0.9,1-2.5,1.4-4.8,1.4h-4.2v6.6
				H120.1z M122.3,25.1h4.2c1.4,0,2.4-0.3,3-0.8c0.6-0.5,0.9-1.2,0.9-2.2c0-0.7-0.2-1.3-0.5-1.7c-0.3-0.5-0.8-0.8-1.4-1
				c-0.4-0.1-1-0.1-2-0.1h-4.1V25.1z"/>
		</g>
	</g>
	<g>
		<g>
			<path id="path_b51488f3f195147f02a77b3461244136" class="st0" d="M142.7,33.6v-1.7c-0.9,1.3-2.2,2-3.7,2c-0.7,0-1.3-0.1-1.9-0.4
				c-0.6-0.3-1-0.6-1.3-1c-0.3-0.4-0.5-0.9-0.6-1.5c-0.1-0.4-0.1-1-0.1-1.9v-7.3h2v6.5c0,1,0,1.7,0.1,2.1c0.1,0.5,0.4,0.9,0.8,1.2
				c0.4,0.3,0.9,0.4,1.5,0.4c0.6,0,1.2-0.2,1.7-0.5c0.5-0.3,0.9-0.7,1.1-1.2c0.2-0.5,0.3-1.3,0.3-2.3v-6.3h2v11.7H142.7z
				 M138.5,20.4l1.5-3.1h2.6l-2.4,3.1H138.5z"/>
		</g>
	</g>
	<g>
		<g>
			<path id="path_47969a8e6bd66af6c55a2ed5a761d2b2" class="st0" d="M149.4,33.6h-1.8V17.4h2v5.8c0.8-1.1,1.9-1.6,3.2-1.6
				c0.7,0,1.4,0.1,2.1,0.4c0.6,0.3,1.2,0.7,1.6,1.2c0.4,0.5,0.7,1.2,1,1.9c0.2,0.7,0.4,1.5,0.4,2.4c0,2-0.5,3.6-1.5,4.7
				c-1,1.1-2.2,1.6-3.6,1.6c-1.4,0-2.5-0.6-3.3-1.7V33.6z M149.4,27.6c0,1.4,0.2,2.4,0.6,3.1c0.6,1,1.5,1.5,2.5,1.5
				c0.9,0,1.6-0.4,2.3-1.1c0.6-0.8,1-1.9,1-3.4c0-1.5-0.3-2.7-0.9-3.4c-0.6-0.7-1.3-1.1-2.2-1.1c-0.9,0-1.6,0.4-2.3,1.1
				C149.7,25.1,149.4,26.2,149.4,27.6z"/>
		</g>
	</g>
	<g>
		<g>
			<path id="path_dd98bd290745edfe27cc44a176985d18" class="st0" d="M160.1,33.6V17.4h2v16.2H160.1z"/>
		</g>
	</g>
	<g>
		<g>
			<path id="path_0bd2e4da5bd336a284b6d6b122985faa" class="st0" d="M165.2,19.7v-2.3h2v2.3H165.2z M165.2,33.6V21.8h2v11.7H165.2z"
				/>
		</g>
	</g>
	<g>
		<g>
			<path id="path_d9057ae4489e3cbd4bc5da8dcaa4f934" class="st0" d="M177.9,29.3l2,0.3c-0.2,1.3-0.8,2.4-1.6,3.2
				c-0.9,0.8-2,1.1-3.2,1.1c-1.6,0-2.9-0.5-3.9-1.6c-1-1.1-1.5-2.6-1.5-4.5c0-1.3,0.2-2.4,0.6-3.3c0.4-1,1.1-1.7,1.9-2.1
				c0.9-0.5,1.8-0.7,2.8-0.7c1.3,0,2.3,0.3,3.1,1c0.8,0.6,1.3,1.6,1.6,2.7l-1.9,0.3c-0.2-0.8-0.5-1.4-1-1.8c-0.5-0.4-1-0.6-1.7-0.6
				c-1,0-1.8,0.4-2.4,1.1c-0.6,0.7-0.9,1.9-0.9,3.4c0,1.6,0.3,2.7,0.9,3.4c0.6,0.7,1.4,1.1,2.4,1.1c0.8,0,1.4-0.2,2-0.7
				C177.4,31,177.8,30.3,177.9,29.3z"/>
		</g>
	</g>
	<g>
		<g>
			<path id="path_7b28b4931d8dc050b15bd2f5958ca125" class="st0" d="M180.8,27.7c0-2.2,0.6-3.8,1.8-4.8c1-0.9,2.2-1.3,3.7-1.3
				c1.6,0,2.9,0.5,4,1.6c1,1.1,1.5,2.5,1.5,4.4c0,1.5-0.2,2.7-0.7,3.6s-1.1,1.5-2,2c-0.9,0.5-1.8,0.7-2.8,0.7c-1.6,0-3-0.5-4-1.6
				C181.3,31.2,180.8,29.7,180.8,27.7z M182.9,27.7c0,1.5,0.3,2.6,1,3.4c0.7,0.7,1.5,1.1,2.5,1.1c1,0,1.8-0.4,2.5-1.1
				c0.7-0.8,1-1.9,1-3.4c0-1.5-0.3-2.6-1-3.3c-0.7-0.7-1.5-1.1-2.5-1.1c-1,0-1.8,0.4-2.5,1.1C183.2,25.1,182.9,26.2,182.9,27.7z"/>
		</g>
	</g>
</g>
<g>
	<g>
		<g>
			<path id="path_abbaf669af8be5f8fdc189b4bc77463d" class="st0" d="M42.8,14.3h-3.1l-1.2-3.2h-5.6l-1.2,3.2h-3l5.5-14h3L42.8,14.3z
				 M37.6,8.7l-1.9-5.2l-1.9,5.2H37.6z"/>
		</g>
	</g>
	<g>
		<g>
			<path id="path_5b71ed4b8d43e6870cf53cb278c61f91" class="st0" d="M53.1,7.1l-2.6,0.5c-0.1-0.5-0.3-0.9-0.6-1.2
				C49.6,6.1,49.1,6,48.6,6C48,6,47.4,6.2,47,6.7c-0.4,0.5-0.6,1.2-0.6,2.3c0,1.2,0.2,2.1,0.6,2.5c0.4,0.5,0.9,0.7,1.6,0.7
				c0.5,0,0.9-0.1,1.3-0.4c0.3-0.3,0.6-0.8,0.7-1.5l2.6,0.4c-0.3,1.2-0.8,2.1-1.6,2.7c-0.8,0.6-1.8,0.9-3.1,0.9
				c-1.5,0-2.7-0.5-3.5-1.4c-0.9-0.9-1.3-2.2-1.3-3.9c0-1.7,0.4-3,1.3-3.9c0.9-0.9,2.1-1.4,3.6-1.4c1.2,0,2.2,0.3,2.9,0.8
				C52.3,5.2,52.8,6,53.1,7.1z"/>
		</g>
	</g>
	<g>
		<g>
			<path id="path_6683ce6722e279f6eff6b92fdf4bcb9a" class="st0" d="M61,11l2.7,0.4c-0.3,1-0.9,1.7-1.6,2.2
				c-0.7,0.5-1.7,0.8-2.8,0.8c-1.8,0-3.1-0.6-3.9-1.7c-0.7-0.9-1-2.1-1-3.5c0-1.7,0.4-3,1.3-3.9c0.9-1,2-1.4,3.3-1.4
				c1.5,0,2.7,0.5,3.6,1.5c0.9,1,1.3,2.5,1.3,4.6h-6.7c0,0.8,0.2,1.4,0.6,1.9c0.4,0.4,0.9,0.7,1.5,0.7c0.4,0,0.8-0.1,1.1-0.3
				C60.7,11.9,60.9,11.5,61,11z M61.2,8.3c0-0.8-0.2-1.4-0.6-1.8c-0.4-0.4-0.8-0.6-1.4-0.6c-0.6,0-1.1,0.2-1.5,0.6
				c-0.4,0.4-0.6,1-0.6,1.7H61.2z"/>
		</g>
	</g>
	<g>
		<g>
			<path id="path_eb77d9df982b1e8e314263280a003415" class="st0" d="M65.1,11.4l2.7-0.4c0.1,0.5,0.3,0.9,0.7,1.2
				c0.4,0.3,0.8,0.4,1.5,0.4c0.7,0,1.2-0.1,1.6-0.4c0.2-0.2,0.4-0.4,0.4-0.7c0-0.2-0.1-0.4-0.2-0.5c-0.1-0.1-0.4-0.2-0.9-0.4
				c-2.2-0.5-3.5-0.9-4.1-1.3C65.9,8.7,65.5,8,65.5,7c0-0.9,0.3-1.6,1-2.2c0.7-0.6,1.8-0.9,3.2-0.9c1.4,0,2.4,0.2,3.1,0.7
				c0.7,0.5,1.1,1.1,1.4,2L71.7,7c-0.1-0.4-0.3-0.7-0.6-0.9c-0.3-0.2-0.7-0.3-1.3-0.3c-0.7,0-1.2,0.1-1.5,0.3
				c-0.2,0.1-0.3,0.3-0.3,0.5c0,0.2,0.1,0.4,0.3,0.5c0.2,0.2,1.1,0.4,2.5,0.8c1.4,0.3,2.4,0.7,3,1.2c0.6,0.5,0.8,1.1,0.8,2
				c0,0.9-0.4,1.7-1.2,2.4c-0.8,0.7-1.9,1-3.4,1c-1.4,0-2.5-0.3-3.3-0.8C65.9,13.1,65.3,12.3,65.1,11.4z"/>
		</g>
	</g>
	<g>
		<g>
			<path id="path_5df3383077f4d17c45432177a0ad9eba" class="st0" d="M76,11.4l2.7-0.4c0.1,0.5,0.3,0.9,0.7,1.2
				c0.4,0.3,0.8,0.4,1.5,0.4c0.7,0,1.2-0.1,1.6-0.4c0.2-0.2,0.4-0.4,0.4-0.7c0-0.2-0.1-0.4-0.2-0.5c-0.1-0.1-0.4-0.2-0.9-0.4
				c-2.2-0.5-3.5-0.9-4.1-1.3C76.7,8.7,76.3,8,76.3,7c0-0.9,0.3-1.6,1-2.2c0.7-0.6,1.8-0.9,3.2-0.9c1.4,0,2.4,0.2,3.1,0.7
				c0.7,0.5,1.1,1.1,1.4,2L82.6,7c-0.1-0.4-0.3-0.7-0.6-0.9c-0.3-0.2-0.7-0.3-1.3-0.3c-0.7,0-1.2,0.1-1.5,0.3
				c-0.2,0.1-0.3,0.3-0.3,0.5c0,0.2,0.1,0.4,0.3,0.5c0.2,0.2,1.1,0.4,2.5,0.8c1.4,0.3,2.4,0.7,3,1.2c0.6,0.5,0.8,1.1,0.8,2
				c0,0.9-0.4,1.7-1.2,2.4c-0.8,0.7-1.9,1-3.4,1c-1.4,0-2.5-0.3-3.3-0.8C76.7,13.1,76.2,12.3,76,11.4z"/>
		</g>
	</g>
	<g>
		<g>
			<path id="path_ad3a1361ec879f730087747883eac605" class="st0" d="M87.2,9c0-0.9,0.2-1.8,0.7-2.6c0.4-0.8,1.1-1.5,1.9-1.9
				c0.8-0.4,1.7-0.7,2.7-0.7c1.5,0,2.8,0.5,3.8,1.5c1,1,1.5,2.3,1.5,3.8c0,1.5-0.5,2.8-1.5,3.8c-1,1-2.2,1.5-3.7,1.5
				c-0.9,0-1.8-0.2-2.7-0.6c-0.8-0.4-1.5-1-1.9-1.8C87.4,11.2,87.2,10.2,87.2,9z M89.9,9.2c0,1,0.2,1.8,0.7,2.3
				c0.5,0.5,1.1,0.8,1.8,0.8c0.7,0,1.3-0.3,1.8-0.8c0.5-0.5,0.7-1.3,0.7-2.3c0-1-0.2-1.8-0.7-2.3c-0.5-0.5-1.1-0.8-1.8-0.8
				c-0.7,0-1.3,0.3-1.8,0.8C90.1,7.4,89.9,8.2,89.9,9.2z"/>
		</g>
	</g>
	<g>
		<g>
			<path id="path_cbd6422f6bbfeab5507f8b0033820081" class="st0" d="M111,11l2.7,0.4c-0.3,1-0.9,1.7-1.6,2.2
				c-0.7,0.5-1.7,0.8-2.8,0.8c-1.8,0-3.1-0.6-3.9-1.7c-0.7-0.9-1-2.1-1-3.5c0-1.7,0.4-3,1.3-3.9c0.9-1,2-1.4,3.3-1.4
				c1.5,0,2.7,0.5,3.6,1.5c0.9,1,1.3,2.5,1.3,4.6h-6.7c0,0.8,0.2,1.4,0.6,1.9c0.4,0.4,0.9,0.7,1.5,0.7c0.4,0,0.8-0.1,1.1-0.3
				C110.7,11.9,110.9,11.5,111,11z M111.2,8.3c0-0.8-0.2-1.4-0.6-1.8c-0.4-0.4-0.8-0.6-1.4-0.6c-0.6,0-1.1,0.2-1.5,0.6
				c-0.4,0.4-0.6,1-0.6,1.7H111.2z"/>
		</g>
	</g>
	<g>
		<g>
			<path id="path_3d0331ccd16da3e01fd27179b0b59474" class="st0" d="M114.7,14.3l3.7-5.2l-3.5-4.9h3.3l1.8,2.8l1.9-2.8h3.2l-3.4,4.8
				l3.8,5.3H122l-2.1-3.1l-2.1,3.1H114.7z"/>
		</g>
	</g>
	<g>
		<g>
			<path id="path_57e91e1e9e8ef219d8dd48304efcfebd" class="st0" d="M135.7,7.1l-2.6,0.5c-0.1-0.5-0.3-0.9-0.6-1.2
				c-0.3-0.3-0.7-0.4-1.2-0.4c-0.7,0-1.2,0.2-1.6,0.7c-0.4,0.5-0.6,1.2-0.6,2.3c0,1.2,0.2,2.1,0.6,2.5c0.4,0.5,0.9,0.7,1.6,0.7
				c0.5,0,0.9-0.1,1.3-0.4c0.3-0.3,0.6-0.8,0.7-1.5l2.6,0.4c-0.3,1.2-0.8,2.1-1.6,2.7c-0.8,0.6-1.8,0.9-3.1,0.9
				c-1.5,0-2.7-0.5-3.5-1.4c-0.9-0.9-1.3-2.2-1.3-3.9c0-1.7,0.4-3,1.3-3.9c0.9-0.9,2.1-1.4,3.6-1.4c1.2,0,2.2,0.3,2.9,0.8
				C134.9,5.2,135.4,6,135.7,7.1z"/>
		</g>
	</g>
	<g>
		<g>
			<path id="path_f3526287165edbc4526b78a7e88d9511" class="st0" d="M137.8,14.3v-14h2.7v14H137.8z"/>
		</g>
	</g>
	<g>
		<g>
			<path id="path_fad76fb8ad77e050a9883dff5cf36814" class="st0" d="M149.9,14.3v-1.5c-0.4,0.5-0.9,1-1.5,1.3
				c-0.6,0.3-1.2,0.5-1.9,0.5c-0.7,0-1.3-0.1-1.8-0.4c-0.5-0.3-0.9-0.7-1.2-1.3c-0.2-0.5-0.4-1.3-0.4-2.2V4.1h2.7v4.7
				c0,1.4,0,2.3,0.1,2.6c0.1,0.3,0.3,0.6,0.5,0.8c0.3,0.2,0.6,0.3,1,0.3c0.5,0,0.9-0.1,1.2-0.4c0.4-0.3,0.6-0.6,0.7-0.9
				c0.1-0.4,0.2-1.3,0.2-2.7V4.1h2.7v10.1H149.9z"/>
		</g>
	</g>
	<g>
		<g>
			<path id="path_c275b8167a9d26f58d4ca5b9e7d402c1" class="st0" d="M154.2,11.4l2.7-0.4c0.1,0.5,0.3,0.9,0.7,1.2
				c0.4,0.3,0.8,0.4,1.5,0.4c0.7,0,1.2-0.1,1.6-0.4c0.2-0.2,0.4-0.4,0.4-0.7c0-0.2-0.1-0.4-0.2-0.5c-0.1-0.1-0.4-0.2-0.9-0.4
				c-2.2-0.5-3.5-0.9-4.1-1.3C155,8.7,154.6,8,154.6,7c0-0.9,0.3-1.6,1-2.2c0.7-0.6,1.8-0.9,3.2-0.9c1.4,0,2.4,0.2,3.1,0.7
				c0.7,0.5,1.1,1.1,1.4,2L160.8,7c-0.1-0.4-0.3-0.7-0.6-0.9c-0.3-0.2-0.7-0.3-1.3-0.3c-0.7,0-1.2,0.1-1.5,0.3
				c-0.2,0.1-0.3,0.3-0.3,0.5c0,0.2,0.1,0.4,0.3,0.5c0.2,0.2,1.1,0.4,2.5,0.8c1.4,0.3,2.4,0.7,3,1.2c0.6,0.5,0.8,1.1,0.8,2
				c0,0.9-0.4,1.7-1.2,2.4c-0.8,0.7-1.9,1-3.4,1c-1.4,0-2.5-0.3-3.3-0.8C155,13.1,154.5,12.3,154.2,11.4z"/>
		</g>
	</g>
	<g>
		<g>
			<path id="path_502fd8be79af01390b127c50878a0dc5" class="st0" d="M166,2.7V0.3h2.7v2.5H166z M166,14.3V4.1h2.7v10.1H166z"/>
		</g>
	</g>
	<g>
		<g>
			<path id="path_6a83f2fb1fe2feaf375fcdca5ab2abc6" class="st0" d="M174.3,14.3l-4.1-10.1h2.8l1.9,5.2l0.6,1.7
				c0.1-0.4,0.2-0.7,0.3-0.9c0.1-0.3,0.2-0.6,0.3-0.9l1.9-5.2h2.8l-4,10.1H174.3z"/>
		</g>
	</g>
	<g>
		<g>
			<path id="path_44ee202e2a2f88ff8a7de16e33458ad0" class="st0" d="M181.7,9c0-0.9,0.2-1.8,0.7-2.6c0.4-0.8,1.1-1.5,1.9-1.9
				c0.8-0.4,1.7-0.7,2.7-0.7c1.5,0,2.8,0.5,3.8,1.5c1,1,1.5,2.3,1.5,3.8c0,1.5-0.5,2.8-1.5,3.8c-1,1-2.2,1.5-3.7,1.5
				c-0.9,0-1.8-0.2-2.7-0.6c-0.8-0.4-1.5-1-1.9-1.8C181.9,11.2,181.7,10.2,181.7,9z M184.5,9.2c0,1,0.2,1.8,0.7,2.3
				c0.5,0.5,1.1,0.8,1.8,0.8c0.7,0,1.3-0.3,1.8-0.8c0.5-0.5,0.7-1.3,0.7-2.3c0-1-0.2-1.8-0.7-2.3c-0.5-0.5-1.1-0.8-1.8-0.8
				c-0.7,0-1.3,0.3-1.8,0.8C184.7,7.4,184.5,8.2,184.5,9.2z"/>
		</g>
	</g>
</g>
</svg>
